M48
; DRILL file {KiCad 5.1.5+dfsg1-2build2} date Mo 22 Feb 2021 11:34:13 CET
; FORMAT={-:-/ absolute / inch / decimal}
; #@! TF.CreationDate,2021-02-22T11:34:13+01:00
; #@! TF.GenerationSoftware,Kicad,Pcbnew,5.1.5+dfsg1-2build2
; #@! TF.FileFunction,Plated,1,2,PTH
FMAT,2
INCH
T1C0.0157
T2C0.0984
%
G90
G05
T1
X4.675Y-2.715
X4.74Y-2.64
X4.74Y-2.77
X4.75Y-2.505
X4.755Y-2.855
X4.765Y-2.325
X4.78Y-3.04
X4.91Y-2.47
X4.96Y-2.225
X4.975Y-2.94
X4.98Y-2.13
X5.055Y-2.11
X5.07Y-2.23
X5.11Y-2.66
X5.115Y-2.435
X5.115Y-2.79
X5.115Y-2.84
X5.125Y-2.735
X5.17Y-2.695
X5.18Y-2.505
X5.225Y-2.825
X5.24Y-2.67
X5.275Y-2.095
X5.305Y-2.89
X5.305Y-2.965
X5.305Y-3.03
X5.465Y-2.145
X5.5Y-2.555
X5.52Y-2.125
X5.58Y-2.045
X5.73Y-2.2
X5.815Y-2.82
X5.87Y-2.35
X5.885Y-2.085
X5.92Y-2.705
X5.945Y-2.865
X6.005Y-2.785
X6.04Y-2.14
X6.0438Y-2.7462
X6.11Y-2.055
X6.25Y-2.995
X6.255Y-2.93
X6.38Y-2.815
T2
X6.4234Y-2.0995
X6.4235Y-3.0532
T0
M30
