G04 #@! TF.GenerationSoftware,KiCad,Pcbnew,5.1.5+dfsg1-2build2*
G04 #@! TF.CreationDate,2021-02-22T11:33:45+01:00*
G04 #@! TF.ProjectId,Lomu-hw,4c6f6d75-2d68-4772-9e6b-696361645f70,rev?*
G04 #@! TF.SameCoordinates,Original*
G04 #@! TF.FileFunction,Soldermask,Bot*
G04 #@! TF.FilePolarity,Negative*
%FSLAX46Y46*%
G04 Gerber Fmt 4.6, Leading zero omitted, Abs format (unit mm)*
G04 Created by KiCad (PCBNEW 5.1.5+dfsg1-2build2) date 2021-02-22 11:33:45*
%MOMM*%
%LPD*%
G04 APERTURE LIST*
%ADD10C,0.100000*%
G04 APERTURE END LIST*
D10*
G36*
X163900998Y-75098313D02*
G01*
X164285310Y-75257500D01*
X164365252Y-75290613D01*
X164783068Y-75569789D01*
X165138391Y-75925112D01*
X165417567Y-76342928D01*
X165417568Y-76342930D01*
X165609867Y-76807182D01*
X165707900Y-77300027D01*
X165707900Y-77802533D01*
X165609867Y-78295378D01*
X165417568Y-78759630D01*
X165417567Y-78759632D01*
X165138391Y-79177448D01*
X164783068Y-79532771D01*
X164365252Y-79811947D01*
X164365251Y-79811948D01*
X164365250Y-79811948D01*
X163900998Y-80004247D01*
X163408153Y-80102280D01*
X162905647Y-80102280D01*
X162412802Y-80004247D01*
X161948550Y-79811948D01*
X161948549Y-79811948D01*
X161948548Y-79811947D01*
X161530732Y-79532771D01*
X161175409Y-79177448D01*
X160896233Y-78759632D01*
X160896232Y-78759630D01*
X160703933Y-78295378D01*
X160605900Y-77802533D01*
X160605900Y-77300027D01*
X160703933Y-76807182D01*
X160896232Y-76342930D01*
X160896233Y-76342928D01*
X161175409Y-75925112D01*
X161530732Y-75569789D01*
X161948548Y-75290613D01*
X162028490Y-75257500D01*
X162412802Y-75098313D01*
X162905647Y-75000280D01*
X163408153Y-75000280D01*
X163900998Y-75098313D01*
G37*
G36*
X117726780Y-77657500D02*
G01*
X115226780Y-77657500D01*
X115226780Y-63257500D01*
X117726780Y-63257500D01*
X117726780Y-77657500D01*
G37*
G36*
X117726780Y-60057500D02*
G01*
X115226780Y-60057500D01*
X115226780Y-53657500D01*
X117726780Y-53657500D01*
X117726780Y-60057500D01*
G37*
G36*
X163898458Y-50874333D02*
G01*
X164362710Y-51066632D01*
X164362712Y-51066633D01*
X164780528Y-51345809D01*
X165135851Y-51701132D01*
X165415027Y-52118948D01*
X165415028Y-52118950D01*
X165607327Y-52583202D01*
X165705360Y-53076047D01*
X165705360Y-53578553D01*
X165607327Y-54071398D01*
X165415028Y-54535650D01*
X165415027Y-54535652D01*
X165135851Y-54953468D01*
X164780528Y-55308791D01*
X164362712Y-55587967D01*
X164362711Y-55587968D01*
X164362710Y-55587968D01*
X163898458Y-55780267D01*
X163405613Y-55878300D01*
X162903107Y-55878300D01*
X162410262Y-55780267D01*
X161946010Y-55587968D01*
X161946009Y-55587968D01*
X161946008Y-55587967D01*
X161528192Y-55308791D01*
X161172869Y-54953468D01*
X160893693Y-54535652D01*
X160893692Y-54535650D01*
X160701393Y-54071398D01*
X160603360Y-53578553D01*
X160603360Y-53076047D01*
X160701393Y-52583202D01*
X160893692Y-52118950D01*
X160893693Y-52118948D01*
X161172869Y-51701132D01*
X161528192Y-51345809D01*
X161946008Y-51066633D01*
X161946010Y-51066632D01*
X162410262Y-50874333D01*
X162903107Y-50776300D01*
X163405613Y-50776300D01*
X163898458Y-50874333D01*
G37*
M02*
