G04 #@! TF.GenerationSoftware,KiCad,Pcbnew,5.1.5+dfsg1-2build2*
G04 #@! TF.CreationDate,2021-02-22T11:33:45+01:00*
G04 #@! TF.ProjectId,Lomu-hw,4c6f6d75-2d68-4772-9e6b-696361645f70,rev?*
G04 #@! TF.SameCoordinates,Original*
G04 #@! TF.FileFunction,Copper,L2,Bot*
G04 #@! TF.FilePolarity,Positive*
%FSLAX46Y46*%
G04 Gerber Fmt 4.6, Leading zero omitted, Abs format (unit mm)*
G04 Created by KiCad (PCBNEW 5.1.5+dfsg1-2build2) date 2021-02-22 11:33:45*
%MOMM*%
%LPD*%
G04 APERTURE LIST*
%ADD10R,2.300000X0.600000*%
%ADD11C,5.000000*%
%ADD12C,0.800000*%
%ADD13C,0.250000*%
%ADD14C,0.254000*%
G04 APERTURE END LIST*
D10*
X116476780Y-54057500D03*
X116476780Y-54857500D03*
X116476780Y-55657500D03*
X116476780Y-56457500D03*
X116476780Y-57257500D03*
X116476780Y-58057500D03*
X116476780Y-58857500D03*
X116476780Y-59657500D03*
X116476780Y-63657500D03*
X116476780Y-64457500D03*
X116476780Y-65257500D03*
X116476780Y-66057500D03*
X116476780Y-66857500D03*
X116476780Y-67657500D03*
X116476780Y-68457500D03*
X116476780Y-69257500D03*
X116476780Y-70057500D03*
X116476780Y-70857500D03*
X116476780Y-71657500D03*
X116476780Y-72457500D03*
X116476780Y-73257500D03*
X116476780Y-74057500D03*
X116476780Y-74857500D03*
X116476780Y-75657500D03*
X116476780Y-76457500D03*
X116476780Y-77257500D03*
D11*
X163154360Y-53327300D03*
X163156900Y-77551280D03*
D12*
X138811000Y-54483000D03*
X133985000Y-53213000D03*
X120396000Y-67056000D03*
X120396000Y-70358000D03*
X120650000Y-63627000D03*
X121031000Y-59055000D03*
X120777000Y-72517000D03*
X118745000Y-68961000D03*
X121412000Y-77216000D03*
X126492000Y-54102000D03*
X128397000Y-53594000D03*
X125984000Y-56515000D03*
X126365000Y-74676000D03*
X151003000Y-72771000D03*
X153416000Y-54356000D03*
X145542000Y-55880000D03*
X139700000Y-64897000D03*
X124714000Y-62738000D03*
X129921000Y-61849000D03*
X134747000Y-75311000D03*
X134747000Y-76962000D03*
X134747000Y-73406000D03*
X132715000Y-71755000D03*
X147701000Y-71628000D03*
X162052000Y-71501000D03*
X141732000Y-51943000D03*
X140208000Y-53975000D03*
X130175000Y-69469000D03*
X152527000Y-70739000D03*
X129921000Y-70866000D03*
X158877000Y-74422000D03*
X129921000Y-72136000D03*
X158750000Y-76073000D03*
X153512853Y-69753147D03*
X131318000Y-68453000D03*
X150368000Y-68707000D03*
X133096000Y-67818000D03*
X131572000Y-63627000D03*
X155194000Y-52197000D03*
X149479000Y-52959000D03*
X149098000Y-59690000D03*
X129794000Y-67564000D03*
X128778000Y-56642000D03*
D13*
X137541000Y-53213000D02*
X138811000Y-54483000D01*
X133985000Y-53213000D02*
X133985000Y-53213000D01*
X133985000Y-53213000D02*
X137541000Y-53213000D01*
X118872000Y-70866000D02*
X118863500Y-70857500D01*
X118863500Y-70857500D02*
X116476780Y-70857500D01*
X118872000Y-70866000D02*
X118872000Y-70485000D01*
X118872000Y-70485000D02*
X119761000Y-69596000D01*
X119761000Y-67691000D02*
X120396000Y-67056000D01*
X119761000Y-69596000D02*
X119761000Y-67691000D01*
X119096500Y-71657500D02*
X116476780Y-71657500D01*
X120396000Y-70358000D02*
X119096500Y-71657500D01*
X120777000Y-73557280D02*
X120777000Y-72517000D01*
X117876780Y-76457500D02*
X120777000Y-73557280D01*
X116476780Y-76457500D02*
X117876780Y-76457500D01*
X120717500Y-72457500D02*
X120777000Y-72517000D01*
X116476780Y-72457500D02*
X120717500Y-72457500D01*
X120619500Y-63657500D02*
X120650000Y-63627000D01*
X116476780Y-63657500D02*
X120619500Y-63657500D01*
X121031000Y-58011720D02*
X121031000Y-59055000D01*
X117876780Y-54857500D02*
X121031000Y-58011720D01*
X116476780Y-54857500D02*
X117876780Y-54857500D01*
X120650000Y-64192685D02*
X120650000Y-63627000D01*
X117985185Y-66857500D02*
X120650000Y-64192685D01*
X116476780Y-66857500D02*
X117985185Y-66857500D01*
X120777000Y-72517000D02*
X120777000Y-72517000D01*
X118745000Y-69189280D02*
X118745000Y-68961000D01*
X117876780Y-70057500D02*
X118745000Y-69189280D01*
X116476780Y-70057500D02*
X117876780Y-70057500D01*
X121176999Y-72117001D02*
X120777000Y-72517000D01*
X121176999Y-66763997D02*
X121176999Y-72117001D01*
X120744001Y-66330999D02*
X121176999Y-66763997D01*
X120047999Y-66330999D02*
X120744001Y-66330999D01*
X119310990Y-67068008D02*
X120047999Y-66330999D01*
X119310990Y-68458292D02*
X119310990Y-67068008D01*
X117711782Y-70057500D02*
X119310990Y-68458292D01*
X116476780Y-70057500D02*
X117711782Y-70057500D01*
X121370500Y-77257500D02*
X121412000Y-77216000D01*
X116476780Y-77257500D02*
X121370500Y-77257500D01*
X126447500Y-54057500D02*
X126492000Y-54102000D01*
X116476780Y-54057500D02*
X126447500Y-54057500D01*
X147574000Y-71755000D02*
X147701000Y-71628000D01*
X132715000Y-71755000D02*
X147574000Y-71755000D01*
X161925000Y-71628000D02*
X162052000Y-71501000D01*
X147701000Y-71628000D02*
X161925000Y-71628000D01*
X141732000Y-52451000D02*
X141732000Y-51943000D01*
X140208000Y-53975000D02*
X141732000Y-52451000D01*
X131445000Y-70739000D02*
X152527000Y-70739000D01*
X130175000Y-69469000D02*
X131445000Y-70739000D01*
X133477000Y-74422000D02*
X158877000Y-74422000D01*
X129921000Y-70866000D02*
X133477000Y-74422000D01*
X133858000Y-76073000D02*
X158750000Y-76073000D01*
X129921000Y-72136000D02*
X133858000Y-76073000D01*
X153512853Y-69753147D02*
X153543000Y-69723000D01*
X153416000Y-69850000D02*
X153512853Y-69753147D01*
X132618147Y-69753147D02*
X153512853Y-69753147D01*
X131318000Y-68453000D02*
X132618147Y-69753147D01*
X150241000Y-68834000D02*
X150368000Y-68707000D01*
X133477000Y-68199000D02*
X133096000Y-67818000D01*
X133985000Y-68707000D02*
X133096000Y-67818000D01*
X150368000Y-68707000D02*
X133985000Y-68707000D01*
X132137685Y-63627000D02*
X143694685Y-52070000D01*
X131572000Y-63627000D02*
X132137685Y-63627000D01*
X143694685Y-52070000D02*
X150876000Y-52070000D01*
X155067000Y-52070000D02*
X155194000Y-52197000D01*
X150876000Y-52070000D02*
X155067000Y-52070000D01*
X149479000Y-59309000D02*
X149098000Y-59690000D01*
X149479000Y-52959000D02*
X149479000Y-59309000D01*
X128778000Y-66548000D02*
X128778000Y-56642000D01*
X129794000Y-67564000D02*
X128778000Y-66548000D01*
D14*
G36*
X133181063Y-52553226D02*
G01*
X133067795Y-52722744D01*
X132989774Y-52911102D01*
X132950000Y-53111061D01*
X132950000Y-53314939D01*
X132989774Y-53514898D01*
X133067795Y-53703256D01*
X133181063Y-53872774D01*
X133325226Y-54016937D01*
X133494744Y-54130205D01*
X133683102Y-54208226D01*
X133883061Y-54248000D01*
X134086939Y-54248000D01*
X134286898Y-54208226D01*
X134475256Y-54130205D01*
X134644774Y-54016937D01*
X134688711Y-53973000D01*
X137226199Y-53973000D01*
X137776000Y-54522802D01*
X137776000Y-54584939D01*
X137815774Y-54784898D01*
X137893795Y-54973256D01*
X138007063Y-55142774D01*
X138151226Y-55286937D01*
X138320744Y-55400205D01*
X138509102Y-55478226D01*
X138709061Y-55518000D01*
X138912939Y-55518000D01*
X139112898Y-55478226D01*
X139281492Y-55408392D01*
X132004155Y-62685729D01*
X131873898Y-62631774D01*
X131673939Y-62592000D01*
X131470061Y-62592000D01*
X131270102Y-62631774D01*
X131081744Y-62709795D01*
X130912226Y-62823063D01*
X130768063Y-62967226D01*
X130654795Y-63136744D01*
X130576774Y-63325102D01*
X130537000Y-63525061D01*
X130537000Y-63728939D01*
X130576774Y-63928898D01*
X130654795Y-64117256D01*
X130768063Y-64286774D01*
X130912226Y-64430937D01*
X131081744Y-64544205D01*
X131270102Y-64622226D01*
X131470061Y-64662000D01*
X131673939Y-64662000D01*
X131873898Y-64622226D01*
X132062256Y-64544205D01*
X132231774Y-64430937D01*
X132286724Y-64375987D01*
X132429932Y-64332546D01*
X132561961Y-64261974D01*
X132677686Y-64167001D01*
X132701489Y-64137997D01*
X144009487Y-52830000D01*
X148449383Y-52830000D01*
X148444000Y-52857061D01*
X148444000Y-53060939D01*
X148483774Y-53260898D01*
X148561795Y-53449256D01*
X148675063Y-53618774D01*
X148719000Y-53662711D01*
X148719001Y-58726711D01*
X148607744Y-58772795D01*
X148438226Y-58886063D01*
X148294063Y-59030226D01*
X148180795Y-59199744D01*
X148102774Y-59388102D01*
X148063000Y-59588061D01*
X148063000Y-59791939D01*
X148102774Y-59991898D01*
X148180795Y-60180256D01*
X148294063Y-60349774D01*
X148438226Y-60493937D01*
X148607744Y-60607205D01*
X148796102Y-60685226D01*
X148996061Y-60725000D01*
X149199939Y-60725000D01*
X149399898Y-60685226D01*
X149588256Y-60607205D01*
X149757774Y-60493937D01*
X149901937Y-60349774D01*
X150015205Y-60180256D01*
X150093226Y-59991898D01*
X150133000Y-59791939D01*
X150133000Y-59697681D01*
X150184546Y-59601247D01*
X150228003Y-59457986D01*
X150239000Y-59346333D01*
X150239000Y-59346324D01*
X150242676Y-59309001D01*
X150239000Y-59271678D01*
X150239000Y-53662711D01*
X150282937Y-53618774D01*
X150396205Y-53449256D01*
X150474226Y-53260898D01*
X150514000Y-53060939D01*
X150514000Y-52857061D01*
X150508617Y-52830000D01*
X154372173Y-52830000D01*
X154390063Y-52856774D01*
X154534226Y-53000937D01*
X154703744Y-53114205D01*
X154892102Y-53192226D01*
X155092061Y-53232000D01*
X155295939Y-53232000D01*
X155495898Y-53192226D01*
X155684256Y-53114205D01*
X155853774Y-53000937D01*
X155997937Y-52856774D01*
X156071729Y-52746335D01*
X163576000Y-60250606D01*
X163576000Y-71448394D01*
X159576860Y-75447534D01*
X159553937Y-75413226D01*
X159434791Y-75294080D01*
X159536774Y-75225937D01*
X159680937Y-75081774D01*
X159794205Y-74912256D01*
X159872226Y-74723898D01*
X159912000Y-74523939D01*
X159912000Y-74320061D01*
X159872226Y-74120102D01*
X159794205Y-73931744D01*
X159680937Y-73762226D01*
X159536774Y-73618063D01*
X159367256Y-73504795D01*
X159178898Y-73426774D01*
X158978939Y-73387000D01*
X158775061Y-73387000D01*
X158575102Y-73426774D01*
X158386744Y-73504795D01*
X158217226Y-73618063D01*
X158173289Y-73662000D01*
X133791803Y-73662000D01*
X132902736Y-72772934D01*
X133016898Y-72750226D01*
X133205256Y-72672205D01*
X133374774Y-72558937D01*
X133418711Y-72515000D01*
X147165539Y-72515000D01*
X147210744Y-72545205D01*
X147399102Y-72623226D01*
X147599061Y-72663000D01*
X147802939Y-72663000D01*
X148002898Y-72623226D01*
X148191256Y-72545205D01*
X148360774Y-72431937D01*
X148404711Y-72388000D01*
X161516539Y-72388000D01*
X161561744Y-72418205D01*
X161750102Y-72496226D01*
X161950061Y-72536000D01*
X162153939Y-72536000D01*
X162353898Y-72496226D01*
X162542256Y-72418205D01*
X162711774Y-72304937D01*
X162855937Y-72160774D01*
X162969205Y-71991256D01*
X163047226Y-71802898D01*
X163087000Y-71602939D01*
X163087000Y-71399061D01*
X163047226Y-71199102D01*
X162969205Y-71010744D01*
X162855937Y-70841226D01*
X162711774Y-70697063D01*
X162542256Y-70583795D01*
X162353898Y-70505774D01*
X162153939Y-70466000D01*
X161950061Y-70466000D01*
X161750102Y-70505774D01*
X161561744Y-70583795D01*
X161392226Y-70697063D01*
X161248063Y-70841226D01*
X161230173Y-70868000D01*
X153556617Y-70868000D01*
X153562000Y-70840939D01*
X153562000Y-70788147D01*
X153614792Y-70788147D01*
X153814751Y-70748373D01*
X154003109Y-70670352D01*
X154172627Y-70557084D01*
X154316790Y-70412921D01*
X154430058Y-70243403D01*
X154508079Y-70055045D01*
X154547853Y-69855086D01*
X154547853Y-69651208D01*
X154508079Y-69451249D01*
X154430058Y-69262891D01*
X154316790Y-69093373D01*
X154172627Y-68949210D01*
X154003109Y-68835942D01*
X153814751Y-68757921D01*
X153614792Y-68718147D01*
X153410914Y-68718147D01*
X153210955Y-68757921D01*
X153022597Y-68835942D01*
X152853079Y-68949210D01*
X152809142Y-68993147D01*
X151366359Y-68993147D01*
X151403000Y-68808939D01*
X151403000Y-68605061D01*
X151363226Y-68405102D01*
X151285205Y-68216744D01*
X151171937Y-68047226D01*
X151027774Y-67903063D01*
X150858256Y-67789795D01*
X150669898Y-67711774D01*
X150469939Y-67672000D01*
X150266061Y-67672000D01*
X150066102Y-67711774D01*
X149877744Y-67789795D01*
X149708226Y-67903063D01*
X149664289Y-67947000D01*
X134299802Y-67947000D01*
X134131000Y-67778198D01*
X134131000Y-67716061D01*
X134091226Y-67516102D01*
X134013205Y-67327744D01*
X133899937Y-67158226D01*
X133755774Y-67014063D01*
X133586256Y-66900795D01*
X133397898Y-66822774D01*
X133197939Y-66783000D01*
X132994061Y-66783000D01*
X132794102Y-66822774D01*
X132605744Y-66900795D01*
X132436226Y-67014063D01*
X132292063Y-67158226D01*
X132178795Y-67327744D01*
X132100774Y-67516102D01*
X132061000Y-67716061D01*
X132061000Y-67732289D01*
X131977774Y-67649063D01*
X131808256Y-67535795D01*
X131619898Y-67457774D01*
X131419939Y-67418000D01*
X131216061Y-67418000D01*
X131016102Y-67457774D01*
X130829000Y-67535275D01*
X130829000Y-67462061D01*
X130789226Y-67262102D01*
X130711205Y-67073744D01*
X130597937Y-66904226D01*
X130453774Y-66760063D01*
X130284256Y-66646795D01*
X130095898Y-66568774D01*
X129895939Y-66529000D01*
X129833802Y-66529000D01*
X129538000Y-66233199D01*
X129538000Y-57345711D01*
X129581937Y-57301774D01*
X129695205Y-57132256D01*
X129773226Y-56943898D01*
X129813000Y-56743939D01*
X129813000Y-56540061D01*
X129773226Y-56340102D01*
X129695205Y-56151744D01*
X129581937Y-55982226D01*
X129437774Y-55838063D01*
X129268256Y-55724795D01*
X129079898Y-55646774D01*
X128879939Y-55607000D01*
X128676061Y-55607000D01*
X128476102Y-55646774D01*
X128287744Y-55724795D01*
X128118226Y-55838063D01*
X127974063Y-55982226D01*
X127860795Y-56151744D01*
X127782774Y-56340102D01*
X127743000Y-56540061D01*
X127743000Y-56743939D01*
X127782774Y-56943898D01*
X127860795Y-57132256D01*
X127974063Y-57301774D01*
X128018001Y-57345712D01*
X128018000Y-66510678D01*
X128014324Y-66548000D01*
X128018000Y-66585322D01*
X128018000Y-66585332D01*
X128028997Y-66696985D01*
X128055089Y-66783000D01*
X128072454Y-66840246D01*
X128143026Y-66972276D01*
X128171101Y-67006485D01*
X128237999Y-67088001D01*
X128267002Y-67111804D01*
X128759000Y-67603802D01*
X128759000Y-67665939D01*
X128798774Y-67865898D01*
X128876795Y-68054256D01*
X128990063Y-68223774D01*
X129134226Y-68367937D01*
X129303744Y-68481205D01*
X129492102Y-68559226D01*
X129631982Y-68587050D01*
X129515226Y-68665063D01*
X129371063Y-68809226D01*
X129257795Y-68978744D01*
X129179774Y-69167102D01*
X129140000Y-69367061D01*
X129140000Y-69570939D01*
X129179774Y-69770898D01*
X129257795Y-69959256D01*
X129306345Y-70031916D01*
X129261226Y-70062063D01*
X129117063Y-70206226D01*
X129003795Y-70375744D01*
X128925774Y-70564102D01*
X128886000Y-70764061D01*
X128886000Y-70967939D01*
X128925774Y-71167898D01*
X129003795Y-71356256D01*
X129100510Y-71501000D01*
X129003795Y-71645744D01*
X128925774Y-71834102D01*
X128886000Y-72034061D01*
X128886000Y-72237939D01*
X128925774Y-72437898D01*
X129003795Y-72626256D01*
X129117063Y-72795774D01*
X129261226Y-72939937D01*
X129430744Y-73053205D01*
X129619102Y-73131226D01*
X129819061Y-73171000D01*
X129881199Y-73171000D01*
X133294201Y-76584003D01*
X133317999Y-76613001D01*
X133433724Y-76707974D01*
X133565753Y-76778546D01*
X133709014Y-76822003D01*
X133820667Y-76833000D01*
X133820675Y-76833000D01*
X133858000Y-76836676D01*
X133895325Y-76833000D01*
X158046289Y-76833000D01*
X158090226Y-76876937D01*
X158124534Y-76899860D01*
X156284394Y-78740000D01*
X120523000Y-78740000D01*
X120523000Y-74886082D01*
X121288009Y-74121074D01*
X121317001Y-74097281D01*
X121340795Y-74068288D01*
X121340799Y-74068284D01*
X121411973Y-73981557D01*
X121411974Y-73981556D01*
X121482546Y-73849527D01*
X121526003Y-73706266D01*
X121537000Y-73594613D01*
X121537000Y-73594604D01*
X121540676Y-73557281D01*
X121537000Y-73519958D01*
X121537000Y-73220711D01*
X121580937Y-73176774D01*
X121694205Y-73007256D01*
X121772226Y-72818898D01*
X121812000Y-72618939D01*
X121812000Y-72541226D01*
X121882545Y-72409248D01*
X121926002Y-72265987D01*
X121936999Y-72154334D01*
X121936999Y-72154324D01*
X121940675Y-72117002D01*
X121936999Y-72079679D01*
X121936999Y-66801322D01*
X121940675Y-66763997D01*
X121936999Y-66726672D01*
X121936999Y-66726664D01*
X121926002Y-66615011D01*
X121882545Y-66471750D01*
X121811973Y-66339721D01*
X121717000Y-66223996D01*
X121687997Y-66200194D01*
X121307805Y-65820002D01*
X121284002Y-65790998D01*
X121168277Y-65696025D01*
X121036248Y-65625453D01*
X120892987Y-65581996D01*
X120781334Y-65570999D01*
X120781323Y-65570999D01*
X120744001Y-65567323D01*
X120706679Y-65570999D01*
X120523000Y-65570999D01*
X120523000Y-65394487D01*
X121161004Y-64756483D01*
X121190001Y-64732686D01*
X121284974Y-64616961D01*
X121355546Y-64484932D01*
X121398987Y-64341724D01*
X121453937Y-64286774D01*
X121567205Y-64117256D01*
X121645226Y-63928898D01*
X121685000Y-63728939D01*
X121685000Y-63525061D01*
X121645226Y-63325102D01*
X121567205Y-63136744D01*
X121453937Y-62967226D01*
X121309774Y-62823063D01*
X121140256Y-62709795D01*
X120951898Y-62631774D01*
X120751939Y-62592000D01*
X120548061Y-62592000D01*
X120523000Y-62596985D01*
X120523000Y-59960349D01*
X120540744Y-59972205D01*
X120729102Y-60050226D01*
X120929061Y-60090000D01*
X121132939Y-60090000D01*
X121332898Y-60050226D01*
X121521256Y-59972205D01*
X121690774Y-59858937D01*
X121834937Y-59714774D01*
X121948205Y-59545256D01*
X122026226Y-59356898D01*
X122066000Y-59156939D01*
X122066000Y-58953061D01*
X122026226Y-58753102D01*
X121948205Y-58564744D01*
X121834937Y-58395226D01*
X121791000Y-58351289D01*
X121791000Y-58049045D01*
X121794676Y-58011720D01*
X121791000Y-57974395D01*
X121791000Y-57974387D01*
X121780003Y-57862734D01*
X121736546Y-57719473D01*
X121665974Y-57587444D01*
X121571001Y-57471719D01*
X121542004Y-57447922D01*
X120523000Y-56428918D01*
X120523000Y-52451000D01*
X133283289Y-52451000D01*
X133181063Y-52553226D01*
G37*
X133181063Y-52553226D02*
X133067795Y-52722744D01*
X132989774Y-52911102D01*
X132950000Y-53111061D01*
X132950000Y-53314939D01*
X132989774Y-53514898D01*
X133067795Y-53703256D01*
X133181063Y-53872774D01*
X133325226Y-54016937D01*
X133494744Y-54130205D01*
X133683102Y-54208226D01*
X133883061Y-54248000D01*
X134086939Y-54248000D01*
X134286898Y-54208226D01*
X134475256Y-54130205D01*
X134644774Y-54016937D01*
X134688711Y-53973000D01*
X137226199Y-53973000D01*
X137776000Y-54522802D01*
X137776000Y-54584939D01*
X137815774Y-54784898D01*
X137893795Y-54973256D01*
X138007063Y-55142774D01*
X138151226Y-55286937D01*
X138320744Y-55400205D01*
X138509102Y-55478226D01*
X138709061Y-55518000D01*
X138912939Y-55518000D01*
X139112898Y-55478226D01*
X139281492Y-55408392D01*
X132004155Y-62685729D01*
X131873898Y-62631774D01*
X131673939Y-62592000D01*
X131470061Y-62592000D01*
X131270102Y-62631774D01*
X131081744Y-62709795D01*
X130912226Y-62823063D01*
X130768063Y-62967226D01*
X130654795Y-63136744D01*
X130576774Y-63325102D01*
X130537000Y-63525061D01*
X130537000Y-63728939D01*
X130576774Y-63928898D01*
X130654795Y-64117256D01*
X130768063Y-64286774D01*
X130912226Y-64430937D01*
X131081744Y-64544205D01*
X131270102Y-64622226D01*
X131470061Y-64662000D01*
X131673939Y-64662000D01*
X131873898Y-64622226D01*
X132062256Y-64544205D01*
X132231774Y-64430937D01*
X132286724Y-64375987D01*
X132429932Y-64332546D01*
X132561961Y-64261974D01*
X132677686Y-64167001D01*
X132701489Y-64137997D01*
X144009487Y-52830000D01*
X148449383Y-52830000D01*
X148444000Y-52857061D01*
X148444000Y-53060939D01*
X148483774Y-53260898D01*
X148561795Y-53449256D01*
X148675063Y-53618774D01*
X148719000Y-53662711D01*
X148719001Y-58726711D01*
X148607744Y-58772795D01*
X148438226Y-58886063D01*
X148294063Y-59030226D01*
X148180795Y-59199744D01*
X148102774Y-59388102D01*
X148063000Y-59588061D01*
X148063000Y-59791939D01*
X148102774Y-59991898D01*
X148180795Y-60180256D01*
X148294063Y-60349774D01*
X148438226Y-60493937D01*
X148607744Y-60607205D01*
X148796102Y-60685226D01*
X148996061Y-60725000D01*
X149199939Y-60725000D01*
X149399898Y-60685226D01*
X149588256Y-60607205D01*
X149757774Y-60493937D01*
X149901937Y-60349774D01*
X150015205Y-60180256D01*
X150093226Y-59991898D01*
X150133000Y-59791939D01*
X150133000Y-59697681D01*
X150184546Y-59601247D01*
X150228003Y-59457986D01*
X150239000Y-59346333D01*
X150239000Y-59346324D01*
X150242676Y-59309001D01*
X150239000Y-59271678D01*
X150239000Y-53662711D01*
X150282937Y-53618774D01*
X150396205Y-53449256D01*
X150474226Y-53260898D01*
X150514000Y-53060939D01*
X150514000Y-52857061D01*
X150508617Y-52830000D01*
X154372173Y-52830000D01*
X154390063Y-52856774D01*
X154534226Y-53000937D01*
X154703744Y-53114205D01*
X154892102Y-53192226D01*
X155092061Y-53232000D01*
X155295939Y-53232000D01*
X155495898Y-53192226D01*
X155684256Y-53114205D01*
X155853774Y-53000937D01*
X155997937Y-52856774D01*
X156071729Y-52746335D01*
X163576000Y-60250606D01*
X163576000Y-71448394D01*
X159576860Y-75447534D01*
X159553937Y-75413226D01*
X159434791Y-75294080D01*
X159536774Y-75225937D01*
X159680937Y-75081774D01*
X159794205Y-74912256D01*
X159872226Y-74723898D01*
X159912000Y-74523939D01*
X159912000Y-74320061D01*
X159872226Y-74120102D01*
X159794205Y-73931744D01*
X159680937Y-73762226D01*
X159536774Y-73618063D01*
X159367256Y-73504795D01*
X159178898Y-73426774D01*
X158978939Y-73387000D01*
X158775061Y-73387000D01*
X158575102Y-73426774D01*
X158386744Y-73504795D01*
X158217226Y-73618063D01*
X158173289Y-73662000D01*
X133791803Y-73662000D01*
X132902736Y-72772934D01*
X133016898Y-72750226D01*
X133205256Y-72672205D01*
X133374774Y-72558937D01*
X133418711Y-72515000D01*
X147165539Y-72515000D01*
X147210744Y-72545205D01*
X147399102Y-72623226D01*
X147599061Y-72663000D01*
X147802939Y-72663000D01*
X148002898Y-72623226D01*
X148191256Y-72545205D01*
X148360774Y-72431937D01*
X148404711Y-72388000D01*
X161516539Y-72388000D01*
X161561744Y-72418205D01*
X161750102Y-72496226D01*
X161950061Y-72536000D01*
X162153939Y-72536000D01*
X162353898Y-72496226D01*
X162542256Y-72418205D01*
X162711774Y-72304937D01*
X162855937Y-72160774D01*
X162969205Y-71991256D01*
X163047226Y-71802898D01*
X163087000Y-71602939D01*
X163087000Y-71399061D01*
X163047226Y-71199102D01*
X162969205Y-71010744D01*
X162855937Y-70841226D01*
X162711774Y-70697063D01*
X162542256Y-70583795D01*
X162353898Y-70505774D01*
X162153939Y-70466000D01*
X161950061Y-70466000D01*
X161750102Y-70505774D01*
X161561744Y-70583795D01*
X161392226Y-70697063D01*
X161248063Y-70841226D01*
X161230173Y-70868000D01*
X153556617Y-70868000D01*
X153562000Y-70840939D01*
X153562000Y-70788147D01*
X153614792Y-70788147D01*
X153814751Y-70748373D01*
X154003109Y-70670352D01*
X154172627Y-70557084D01*
X154316790Y-70412921D01*
X154430058Y-70243403D01*
X154508079Y-70055045D01*
X154547853Y-69855086D01*
X154547853Y-69651208D01*
X154508079Y-69451249D01*
X154430058Y-69262891D01*
X154316790Y-69093373D01*
X154172627Y-68949210D01*
X154003109Y-68835942D01*
X153814751Y-68757921D01*
X153614792Y-68718147D01*
X153410914Y-68718147D01*
X153210955Y-68757921D01*
X153022597Y-68835942D01*
X152853079Y-68949210D01*
X152809142Y-68993147D01*
X151366359Y-68993147D01*
X151403000Y-68808939D01*
X151403000Y-68605061D01*
X151363226Y-68405102D01*
X151285205Y-68216744D01*
X151171937Y-68047226D01*
X151027774Y-67903063D01*
X150858256Y-67789795D01*
X150669898Y-67711774D01*
X150469939Y-67672000D01*
X150266061Y-67672000D01*
X150066102Y-67711774D01*
X149877744Y-67789795D01*
X149708226Y-67903063D01*
X149664289Y-67947000D01*
X134299802Y-67947000D01*
X134131000Y-67778198D01*
X134131000Y-67716061D01*
X134091226Y-67516102D01*
X134013205Y-67327744D01*
X133899937Y-67158226D01*
X133755774Y-67014063D01*
X133586256Y-66900795D01*
X133397898Y-66822774D01*
X133197939Y-66783000D01*
X132994061Y-66783000D01*
X132794102Y-66822774D01*
X132605744Y-66900795D01*
X132436226Y-67014063D01*
X132292063Y-67158226D01*
X132178795Y-67327744D01*
X132100774Y-67516102D01*
X132061000Y-67716061D01*
X132061000Y-67732289D01*
X131977774Y-67649063D01*
X131808256Y-67535795D01*
X131619898Y-67457774D01*
X131419939Y-67418000D01*
X131216061Y-67418000D01*
X131016102Y-67457774D01*
X130829000Y-67535275D01*
X130829000Y-67462061D01*
X130789226Y-67262102D01*
X130711205Y-67073744D01*
X130597937Y-66904226D01*
X130453774Y-66760063D01*
X130284256Y-66646795D01*
X130095898Y-66568774D01*
X129895939Y-66529000D01*
X129833802Y-66529000D01*
X129538000Y-66233199D01*
X129538000Y-57345711D01*
X129581937Y-57301774D01*
X129695205Y-57132256D01*
X129773226Y-56943898D01*
X129813000Y-56743939D01*
X129813000Y-56540061D01*
X129773226Y-56340102D01*
X129695205Y-56151744D01*
X129581937Y-55982226D01*
X129437774Y-55838063D01*
X129268256Y-55724795D01*
X129079898Y-55646774D01*
X128879939Y-55607000D01*
X128676061Y-55607000D01*
X128476102Y-55646774D01*
X128287744Y-55724795D01*
X128118226Y-55838063D01*
X127974063Y-55982226D01*
X127860795Y-56151744D01*
X127782774Y-56340102D01*
X127743000Y-56540061D01*
X127743000Y-56743939D01*
X127782774Y-56943898D01*
X127860795Y-57132256D01*
X127974063Y-57301774D01*
X128018001Y-57345712D01*
X128018000Y-66510678D01*
X128014324Y-66548000D01*
X128018000Y-66585322D01*
X128018000Y-66585332D01*
X128028997Y-66696985D01*
X128055089Y-66783000D01*
X128072454Y-66840246D01*
X128143026Y-66972276D01*
X128171101Y-67006485D01*
X128237999Y-67088001D01*
X128267002Y-67111804D01*
X128759000Y-67603802D01*
X128759000Y-67665939D01*
X128798774Y-67865898D01*
X128876795Y-68054256D01*
X128990063Y-68223774D01*
X129134226Y-68367937D01*
X129303744Y-68481205D01*
X129492102Y-68559226D01*
X129631982Y-68587050D01*
X129515226Y-68665063D01*
X129371063Y-68809226D01*
X129257795Y-68978744D01*
X129179774Y-69167102D01*
X129140000Y-69367061D01*
X129140000Y-69570939D01*
X129179774Y-69770898D01*
X129257795Y-69959256D01*
X129306345Y-70031916D01*
X129261226Y-70062063D01*
X129117063Y-70206226D01*
X129003795Y-70375744D01*
X128925774Y-70564102D01*
X128886000Y-70764061D01*
X128886000Y-70967939D01*
X128925774Y-71167898D01*
X129003795Y-71356256D01*
X129100510Y-71501000D01*
X129003795Y-71645744D01*
X128925774Y-71834102D01*
X128886000Y-72034061D01*
X128886000Y-72237939D01*
X128925774Y-72437898D01*
X129003795Y-72626256D01*
X129117063Y-72795774D01*
X129261226Y-72939937D01*
X129430744Y-73053205D01*
X129619102Y-73131226D01*
X129819061Y-73171000D01*
X129881199Y-73171000D01*
X133294201Y-76584003D01*
X133317999Y-76613001D01*
X133433724Y-76707974D01*
X133565753Y-76778546D01*
X133709014Y-76822003D01*
X133820667Y-76833000D01*
X133820675Y-76833000D01*
X133858000Y-76836676D01*
X133895325Y-76833000D01*
X158046289Y-76833000D01*
X158090226Y-76876937D01*
X158124534Y-76899860D01*
X156284394Y-78740000D01*
X120523000Y-78740000D01*
X120523000Y-74886082D01*
X121288009Y-74121074D01*
X121317001Y-74097281D01*
X121340795Y-74068288D01*
X121340799Y-74068284D01*
X121411973Y-73981557D01*
X121411974Y-73981556D01*
X121482546Y-73849527D01*
X121526003Y-73706266D01*
X121537000Y-73594613D01*
X121537000Y-73594604D01*
X121540676Y-73557281D01*
X121537000Y-73519958D01*
X121537000Y-73220711D01*
X121580937Y-73176774D01*
X121694205Y-73007256D01*
X121772226Y-72818898D01*
X121812000Y-72618939D01*
X121812000Y-72541226D01*
X121882545Y-72409248D01*
X121926002Y-72265987D01*
X121936999Y-72154334D01*
X121936999Y-72154324D01*
X121940675Y-72117002D01*
X121936999Y-72079679D01*
X121936999Y-66801322D01*
X121940675Y-66763997D01*
X121936999Y-66726672D01*
X121936999Y-66726664D01*
X121926002Y-66615011D01*
X121882545Y-66471750D01*
X121811973Y-66339721D01*
X121717000Y-66223996D01*
X121687997Y-66200194D01*
X121307805Y-65820002D01*
X121284002Y-65790998D01*
X121168277Y-65696025D01*
X121036248Y-65625453D01*
X120892987Y-65581996D01*
X120781334Y-65570999D01*
X120781323Y-65570999D01*
X120744001Y-65567323D01*
X120706679Y-65570999D01*
X120523000Y-65570999D01*
X120523000Y-65394487D01*
X121161004Y-64756483D01*
X121190001Y-64732686D01*
X121284974Y-64616961D01*
X121355546Y-64484932D01*
X121398987Y-64341724D01*
X121453937Y-64286774D01*
X121567205Y-64117256D01*
X121645226Y-63928898D01*
X121685000Y-63728939D01*
X121685000Y-63525061D01*
X121645226Y-63325102D01*
X121567205Y-63136744D01*
X121453937Y-62967226D01*
X121309774Y-62823063D01*
X121140256Y-62709795D01*
X120951898Y-62631774D01*
X120751939Y-62592000D01*
X120548061Y-62592000D01*
X120523000Y-62596985D01*
X120523000Y-59960349D01*
X120540744Y-59972205D01*
X120729102Y-60050226D01*
X120929061Y-60090000D01*
X121132939Y-60090000D01*
X121332898Y-60050226D01*
X121521256Y-59972205D01*
X121690774Y-59858937D01*
X121834937Y-59714774D01*
X121948205Y-59545256D01*
X122026226Y-59356898D01*
X122066000Y-59156939D01*
X122066000Y-58953061D01*
X122026226Y-58753102D01*
X121948205Y-58564744D01*
X121834937Y-58395226D01*
X121791000Y-58351289D01*
X121791000Y-58049045D01*
X121794676Y-58011720D01*
X121791000Y-57974395D01*
X121791000Y-57974387D01*
X121780003Y-57862734D01*
X121736546Y-57719473D01*
X121665974Y-57587444D01*
X121571001Y-57471719D01*
X121542004Y-57447922D01*
X120523000Y-56428918D01*
X120523000Y-52451000D01*
X133283289Y-52451000D01*
X133181063Y-52553226D01*
G36*
X158192209Y-75200920D02*
G01*
X158090226Y-75269063D01*
X158046289Y-75313000D01*
X134172802Y-75313000D01*
X134041802Y-75182000D01*
X158173289Y-75182000D01*
X158192209Y-75200920D01*
G37*
X158192209Y-75200920D02*
X158090226Y-75269063D01*
X158046289Y-75313000D01*
X134172802Y-75313000D01*
X134041802Y-75182000D01*
X158173289Y-75182000D01*
X158192209Y-75200920D01*
M02*
